REM DIRINDEX 1\2,1\3,1\4,1\5
REM DIRNAME "folder01","folder02","folder03","folder04","folder05"
TITLE ""
FILE "P1Q_t_1049-1058.mp3" MP3
  TRACK 01 AUDIO
    TITLE "0:"
    INDEX 01 00:00:00
  TRACK 02 AUDIO
    TITLE "3:cjc173_4103"
    INDEX 01 00:00:08
  TRACK 03 AUDIO
    TITLE "0:"
    INDEX 01 00:01:49
  TRACK 04 AUDIO
    TITLE "4:cjc173_4104"
    INDEX 01 00:01:70
  TRACK 05 AUDIO
    TITLE "0:"
    INDEX 01 00:03:63
  TRACK 06 AUDIO
    TITLE "5:cjc173_4105"
    INDEX 01 00:04:06
  TRACK 07 AUDIO
    TITLE "0:"
    INDEX 01 00:09:23
  TRACK 08 AUDIO
    TITLE "3:cjc173_4106"
    INDEX 01 00:09:68
  TRACK 09 AUDIO
    TITLE "0:"
    INDEX 01 00:11:10
  TRACK 10 AUDIO
    TITLE "4:cjc173_4107"
    INDEX 01 00:11:30
  TRACK 11 AUDIO
    TITLE "0:"
    INDEX 01 00:15:61
  TRACK 12 AUDIO
    TITLE "5:cjc173_4108"
    INDEX 01 00:16:05
  TRACK 13 AUDIO
    TITLE "0:"
    INDEX 01 00:19:23
  TRACK 14 AUDIO
    TITLE "3:cjc173_4109"
    INDEX 01 00:19:70
  TRACK 15 AUDIO
    TITLE "0:"
    INDEX 01 00:21:26
  TRACK 16 AUDIO
    TITLE "4:cjc173_4110"
    INDEX 01 00:21:48
  TRACK 17 AUDIO
    TITLE "0:"
    INDEX 01 00:24:21
  TRACK 18 AUDIO
    TITLE "5:cjc173_4111"
    INDEX 01 00:24:40
  TRACK 19 AUDIO
    TITLE "0:"
    INDEX 01 00:29:16
  TRACK 20 AUDIO
    TITLE "3:cjc173_4112"
    INDEX 01 00:29:59
  TRACK 21 AUDIO
    TITLE "0:"
    INDEX 01 00:30:72
  TRACK 22 AUDIO
    TITLE "4:cjc173_4113"
    INDEX 01 00:31:19
  TRACK 23 AUDIO
    TITLE "0:"
    INDEX 01 00:33:25
  TRACK 24 AUDIO
    TITLE "5:cjc173_4114"
    INDEX 01 00:33:45
  TRACK 25 AUDIO
    TITLE "0:"
    INDEX 01 00:37:17
  TRACK 26 AUDIO
    TITLE "3:cjc173_4115"
    INDEX 01 00:37:62
  TRACK 27 AUDIO
    TITLE "0:"
    INDEX 01 00:39:10
  TRACK 28 AUDIO
    TITLE "4:cjc173_4116"
    INDEX 01 00:39:32
  TRACK 29 AUDIO
    TITLE "0:"
    INDEX 01 00:42:54
  TRACK 30 AUDIO
    TITLE "5:cjc173_4117"
    INDEX 01 00:42:73
  TRACK 31 AUDIO
    TITLE "0:"
    INDEX 01 00:47:27
  TRACK 32 AUDIO
    TITLE "3:cjc173_4118"
    INDEX 01 00:47:73
  TRACK 33 AUDIO
    TITLE "0:"
    INDEX 01 00:49:21
  TRACK 34 AUDIO
    TITLE "4:cjc173_4119"
    INDEX 01 00:49:42
  TRACK 35 AUDIO
    TITLE "0:"
    INDEX 01 00:52:27
  TRACK 36 AUDIO
    TITLE "5:cjc173_4120"
    INDEX 01 00:52:46
  TRACK 37 AUDIO
    TITLE "0:"
    INDEX 01 00:55:49
  TRACK 38 AUDIO
    TITLE "3:cjc173_4121"
    INDEX 01 00:56:19
  TRACK 39 AUDIO
    TITLE "0:"
    INDEX 01 00:57:32
  TRACK 40 AUDIO
    TITLE "4:cjc173_4122"
    INDEX 01 00:57:55
  TRACK 41 AUDIO
    TITLE "0:"
    INDEX 01 01:00:67
  TRACK 42 AUDIO
    TITLE "5:cjc173_4123"
    INDEX 01 01:01:12
  TRACK 43 AUDIO
    TITLE "0:"
    INDEX 01 01:05:18
  TRACK 44 AUDIO
    TITLE "3:cjc173_4124"
    INDEX 01 01:05:63
  TRACK 45 AUDIO
    TITLE "0:"
    INDEX 01 01:06:72
  TRACK 46 AUDIO
    TITLE "4:cjc173_4125"
    INDEX 01 01:07:18
  TRACK 47 AUDIO
    TITLE "0:"
    INDEX 01 01:10:25
  TRACK 48 AUDIO
    TITLE "5:cjc173_4126"
    INDEX 01 01:10:44
  TRACK 49 AUDIO
    TITLE "0:"
    INDEX 01 01:14:40
  TRACK 50 AUDIO
    TITLE "3:cjc173_4127"
    INDEX 01 01:15:12
  TRACK 51 AUDIO
    TITLE "0:"
    INDEX 01 01:16:21
  TRACK 52 AUDIO
    TITLE "4:cjc173_4128"
    INDEX 01 01:16:43
  TRACK 53 AUDIO
    TITLE "0:"
    INDEX 01 01:18:48
  TRACK 54 AUDIO
    TITLE "5:cjc173_4129"
    INDEX 01 01:18:65
  TRACK 55 AUDIO
    TITLE "0:"
    INDEX 01 01:23:61
  TRACK 56 AUDIO
    TITLE "3:cjc173_4130"
    INDEX 01 01:24:31
  TRACK 57 AUDIO
    TITLE "0:"
    INDEX 01 01:25:42
  TRACK 58 AUDIO
    TITLE "4:cjc173_4131"
    INDEX 01 01:25:61
  TRACK 59 AUDIO
    TITLE "0:"
    INDEX 01 01:29:06
  TRACK 60 AUDIO
    TITLE "5:cjc173_4132"
    INDEX 01 01:29:26
  TRACK 61 AUDIO
    TITLE "0:"
    INDEX 01 01:33:49
